# xmcd
#
# Track frame offsets: 
#        300
#        17127
#        51677
#        71289
#        88802
#        120431
#        143837
#        170641
#        191577
#        227572
#        249413
#
# Disc length: 3699 seconds
#
# Revision: 0
# Processed by: cddbd v1.5.2PL0 Copyright (c) Steve Scherf et al.
# Submitted via: ExactAudioCopy v1.0b1
#
DISCID=980e6f0b
DTITLE=Jimmy Dawkins Band - Blisterstring
DYEAR=1975
DGENRE=Chicago Blues
TTITLE0=Sea Of Luv
TTITLE1=Feel So Bad
TTITLE2=Blue Monday
TTITLE3=Chitlins Con Carne
TTITLE4=She Got The Blues Too
TTITLE5=If You're Ready
TTITLE6=Blues With A Feeling
TTITLE7=Ode To Billle Joe
TTITLE8=Welfare Line
TTITLE9=Shufflin' The Blues
TTITLE10=People Will Talk
EXTD=
EXTT0=
EXTT1=
EXTT2=
EXTT3=
EXTT4=
EXTT5=
EXTT6=
EXTT7=
EXTT8=
EXTT9=
EXTT10=
PLAYORDER=
